<svg xmlns="http://www.w3.org/2000/svg" version="1.1" xmlns:xlink="http://www.w3.org/1999/xlink" xmlns:svgjs="http://svgjs.dev/svgjs" width="100%" height="100%" viewBox="0 0 1000 600"><rect width="1000" height="600" x="0" y="0" fill="white"/><g><circle r="166.66666666666666" cx="381.10929361979163" cy="403.33151237918725" fill="blue" transform="matrix(0.5829065303174017,0,0,0.5829065303174017,0,64.89543941064123)"/><path d="M374.859281649514 409.5815011334534L374.859281649514 409.5815011334534L374.859281649514 450.84307508607657L376.94261497671516 450.84307508607657Q387.359281612721 450.84307508607657 392.2493278946238 446.96576028267435Q397.13937417652653 443.1173806643722 397.13937417652653 433.33728810056675L397.13937417652653 433.33728810056675Q397.13937417652653 424.3673807195617 392.3650686350238 419.3615936972589L392.3650686350238 419.3615936972589Q401.9426149031292 417.27826037005775 409.87085562053363 413.95071408355585Q417.77016115283806 410.623167797054 423.1810407665411 405.21228818335095L423.1810407665411 405.21228818335095Q431.94840185184603 410.4206215013539 435.68104072974813 418.43566777405835Q439.4426147927502 426.45071404676287 439.4426147927502 438.1115936420694L439.4426147927502 438.1115936420694Q439.4426147927502 457.49816765908025 425.2643740937423 467.9148342950861Q411.1150685798343 478.33150093109197 382.1509482947181 478.33150093109197L382.1509482947181 478.33150093109197L334.23428176909124 478.33150093109197L334.23428176909124 367.2782605172297L374.859281649514 367.2782605172297L374.859281649514 389.9923808207424L376.74006868101503 389.9923808207424Q386.11506865342034 389.9923808207424 390.3685408631227 386.3465474981404Q394.6509482579251 382.70071417553834 394.6509482579251 373.5282604988332L394.6509482579251 373.5282604988332Q394.6509482579251 364.1532605264279 390.3685408631227 360.5074272038259Q386.11506865342034 356.8615938812238 376.74006868101503 356.8615938812238L376.74006868101503 356.8615938812238L334.23428176909124 356.8615938812238L322.7759484694848 328.3315013726078L385.27594828551986 328.3315013726078Q410.47849450763397 328.3315013726078 421.93682780724043 338.7481680086137Q433.3951611068468 349.16483464461953 433.3951611068468 367.9148345894301L433.3951611068468 367.9148345894301Q433.3951611068468 379.7782604804367 428.1000222335439 387.82224193824123Q422.7759481751409 395.8372882109457 414.037522274936 400.6115937524484Q405.27016118963104 405.4148344790511 395.0560408493253 407.49816780625224Q384.87085569411965 409.5815011334534 374.859281649514 409.5815011334534Z " fill="#ffffff" transform="matrix(0.5829065303174017,0,0,0.5829065303174017,0,64.89543941064123)"/><path d="M680.1288867448039 411.664833156307L680.1288867448039 411.664833156307L680.1288867448039 450.4992545232651L682.089670993346 450.4992545232651Q691.8935922360563 450.4992545232651 696.4959885972175 446.85001717181177Q701.0983849583788 443.22801293492165 701.0983849583788 434.02322021259914L701.0983849583788 434.02322021259914Q701.0983849583788 425.58095469804306 696.6049210554698 420.8696258786295L696.6049210554698 420.8696258786295Q705.6190819758508 418.9088416300874 713.0809553661359 415.77703345533274Q720.5155956418578 412.6452252805781 725.6081880651545 407.5526328572813L725.6081880651545 407.5526328572813Q733.8598217777691 412.45459347863647 737.3728935564069 419.9981662126108Q740.9131984496079 427.5417389465851 740.9131984496079 438.51668411550804L740.9131984496079 438.51668411550804Q740.9131984496079 456.7628708727745 727.5689723136966 466.5667921154848Q714.2519792923484 476.37071335819513 686.9916316147012 476.37071335819513L686.9916316147012 476.37071335819513L641.8935938982337 476.37071335819513L641.8935938982337 371.8500196650779L680.1288867448039 371.8500196650779L680.1288867448039 393.22801459709905L681.8990391914044 393.22801459709905Q690.7225683098436 393.22801459709905 694.725836150617 389.7966421621504Q698.7563371059535 386.3652697272018 698.7563371059535 377.7323724107041L698.7563371059535 377.7323724107041Q698.7563371059535 368.90884329226486 694.725836150617 365.47747085731623Q690.7225683098436 362.0460984223676 681.8990391914044 362.0460984223676L681.8990391914044 362.0460984223676L641.8935938982337 362.0460984223676L631.1092805312524 335.19424746316656L689.9328079875143 335.19424746316656Q713.6528507719606 335.19424746316656 724.4371641389419 344.9981687058769Q735.2214775059232 354.8020899485872 735.2214775059232 372.4491481854658L735.2214775059232 372.4491481854658Q735.2214775059232 383.6147251563303 730.2378175408788 391.1855310048677Q725.2269244612714 398.729103738842 717.00252386322 403.2225676417509Q708.7508901506054 407.7432646592229 699.1376007098368 409.70404890776496Q689.551544383631 411.664833156307 680.1288867448039 411.664833156307ZM788.7617807369468 328.33150259326936L788.7617807369468 476.37071335819513L753.4676642631897 476.37071335819513L753.4676642631897 333.4240950165661L788.7617807369468 328.33150259326936ZM798.5657019796571 389.71494281846117L798.5657019796571 389.71494281846117L798.5657019796571 364.22474758741436Q805.0199501311081 362.0460984223676 811.1201677932389 362.0460984223676L811.1201677932389 362.0460984223676Q824.6277926165287 362.0460984223676 833.5602541932203 370.4883639369237Q842.492715769912 378.93062945147983 842.492715769912 395.78792736602895L842.492715769912 395.78792736602895L842.492715769912 476.37071335819513L807.1985992961548 476.37071335819513L807.1985992961548 401.4796483097135Q807.1985992961548 390.8859667446738 798.5657019796571 389.71494281846117ZM904.257419598987 459.513415443646L904.257419598987 399.30099914466683Q904.257419598987 393.6365113155453 900.3358511019028 391.5667946087509Q896.4142826048187 389.4970779019565 890.3140649426879 389.4970779019565L890.3140649426879 389.4970779019565Q882.8794246669659 389.4970779019565 876.0166797970686 390.8859667446738Q869.1539349271713 392.24762247282797 862.2911900572742 394.8075352417579L862.2911900572742 394.8075352417579L862.2911900572742 367.356555762169Q871.1147191757134 365.395771513627 880.6190761582299 363.73455152527885Q890.1234331407462 362.0460984223676 899.736722581515 362.0460984223676L899.736722581515 362.0460984223676Q910.5210359484962 362.0460984223676 919.5351968688772 364.71494364954987Q928.549357789258 367.356555762169 934.050446931001 374.2193006320663Q939.551536072744 381.0820455019635 939.551536072744 393.82714311748686L939.551536072744 393.82714311748686L939.551536072744 476.37071335819513L908.9415153038374 476.37071335819513L904.257419598987 459.513415443646ZM894.4534983562766 452.0515420533609L894.4534983562766 452.0515420533609L894.4534983562766 476.18008155625347Q889.3336728184167 478.3314976067372 883.4513200727905 478.3314976067372L883.4513200727905 478.3314976067372Q875.6081830786223 478.3314976067372 868.7454382087251 474.3009966514007Q861.8826933388278 470.29772881062735 857.5798612378607 462.6452236184006Q853.2770291368932 454.992718426174 853.2770291368932 444.20840505919267L853.2770291368932 444.20840505919267Q853.2770291368932 427.7323707485267 864.7421703679518 419.01777408833976Q876.2073115990102 410.3031774281528 894.4534983562766 410.08531251164817L894.4534983562766 410.08531251164817L894.4534983562766 430.8914120378445Q891.2944570669589 432.2530677659987 889.442605276669 434.70404807667626Q887.5907534863794 437.15502838735387 887.5907534863794 440.8859650824964L887.5907534863794 440.8859650824964Q887.5907534863794 445.37942898540524 889.5515377349215 448.2389060145291Q891.5123219834635 451.07114992908987 894.4534983562766 452.0515420533609ZM983.6691816649405 363.6256190670265L1005.6190720027863 476.37071335819513L973.6473955057255 476.37071335819513L947.3946730669123 363.6256190670265L983.6691816649405 363.6256190670265ZM1015.0417296416134 476.37071335819513L1000.3358477775481 403.8216961621388L1006.4088323251158 363.6256190670265L1041.702948798873 363.6256190670265L1015.0417296416134 476.37071335819513ZM1097.5852998823216 459.513415443646L1097.5852998823216 399.30099914466683Q1097.5852998823216 393.6365113155453 1093.6637313852375 391.5667946087509Q1089.7421628881534 389.4970779019565 1083.6691783405859 389.4970779019565L1083.6691783405859 389.4970779019565Q1076.2073049503006 389.4970779019565 1069.3445600804034 390.8859667446738Q1062.4818152105063 392.24762247282797 1055.6190703406087 394.8075352417579L1055.6190703406087 394.8075352417579L1055.6190703406087 367.356555762169Q1064.4425994590483 365.395771513627 1073.9469564415645 363.73455152527885Q1083.451313424081 362.0460984223676 1093.0646028648498 362.0460984223676L1093.0646028648498 362.0460984223676Q1103.848916231831 362.0460984223676 1112.863077152212 364.71494364954987Q1121.9044711871559 367.356555762169 1127.3783272143357 374.2193006320663Q1132.8794163560788 381.0820455019635 1132.8794163560788 393.82714311748686L1132.8794163560788 393.82714311748686L1132.8794163560788 476.37071335819513L1102.2966287017352 476.37071335819513L1097.5852998823216 459.513415443646ZM1087.7813786396114 452.0515420533609L1087.7813786396114 452.0515420533609L1087.7813786396114 476.18008155625347Q1082.6887862163146 478.3314976067372 1076.8064334706883 478.3314976067372L1076.8064334706883 478.3314976067372Q1068.96329647652 478.3314976067372 1062.100551606623 474.3009966514007Q1055.2378067367258 470.29772881062735 1050.9077415211955 462.6452236184006Q1046.604909420228 454.992718426174 1046.604909420228 444.20840505919267L1046.604909420228 444.20840505919267Q1046.604909420228 427.7323707485267 1058.0700506512865 419.01777408833976Q1069.5351918823449 410.3031774281528 1087.7813786396114 410.08531251164817L1087.7813786396114 410.08531251164817L1087.7813786396114 430.8914120378445Q1084.6495704648564 432.2530677659987 1082.7704855600039 434.70404807667626Q1080.9186337697142 437.15502838735387 1080.9186337697142 440.8859650824964L1080.9186337697142 440.8859650824964Q1080.9186337697142 445.37942898540524 1082.8794180182563 448.2389060145291Q1084.8402022667983 451.07114992908987 1087.7813786396114 452.0515420533609ZM1192.683335936612 389.71494281846117L1192.683335936612 389.71494281846117L1192.683335936612 364.22474758741436Q1199.1375840880628 362.0460984223676 1205.2378017501935 362.0460984223676L1205.2378017501935 362.0460984223676Q1218.7454265734832 362.0460984223676 1227.677888150175 370.4883639369237Q1236.6103497268666 378.93062945147983 1236.6103497268666 395.78792736602895L1236.6103497268666 395.78792736602895L1236.6103497268666 476.37071335819513L1201.3162332531094 476.37071335819513L1201.3162332531094 401.4796483097135Q1201.3162332531094 390.8859667446738 1192.683335936612 389.71494281846117ZM1177.5689573541 363.6256190670265L1182.8794146939015 378.7127645349751L1182.8794146939015 476.37071335819513L1147.5852982201443 476.37071335819513L1147.5852982201443 363.6256190670265L1177.5689573541 363.6256190670265ZM1251.3162315909321 476.37071335819513L1251.3162315909321 363.6256190670265L1286.6103480646893 363.6256190670265L1286.6103480646893 476.37071335819513L1251.3162315909321 476.37071335819513ZM1250.3358394666611 354.9927217505288L1250.3358394666611 328.33150259326936L1287.5907401889604 328.33150259326936L1287.5907401889604 354.9927217505288L1250.3358394666611 354.9927217505288ZM1306.599454153993 476.37071335819513L1306.599454153993 444.01777325725106L1341.1038103054207 444.01777325725106L1341.1038103054207 476.37071335819513L1306.599454153993 476.37071335819513ZM1361.1201495092873 476.37071335819513L1361.1201495092873 363.6256190670265L1396.4142659830445 363.6256190670265L1396.4142659830445 476.37071335819513L1361.1201495092873 476.37071335819513ZM1360.1397573850163 354.9927217505288L1360.1397573850163 328.33150259326936L1397.3946581073155 328.33150259326936L1397.3946581073155 354.9927217505288L1360.1397573850163 354.9927217505288ZM1457.1985776878487 389.71494281846117L1457.1985776878487 389.71494281846117L1457.1985776878487 364.22474758741436Q1463.6528258392996 362.0460984223676 1469.7258103868671 362.0460984223676L1469.7258103868671 362.0460984223676Q1483.2606683247204 362.0460984223676 1492.1931299014118 370.4883639369237Q1501.0983583635402 378.93062945147983 1501.0983583635402 395.78792736602895L1501.0983583635402 395.78792736602895L1501.0983583635402 476.37071335819513L1465.8042418897835 476.37071335819513L1465.8042418897835 401.4796483097135Q1465.8042418897835 390.8859667446738 1457.1985776878487 389.71494281846117ZM1442.0841991053371 363.6256190670265L1447.3946564451385 378.7127645349751L1447.3946564451385 476.37071335819513L1412.1005399713813 476.37071335819513L1412.1005399713813 363.6256190670265L1442.0841991053371 363.6256190670265Z " fill="black" transform="matrix(0.5829065303174017,0,0,0.5829065303174017,0,64.89543941064123)"/></g></svg>